function data()
return { 
		subMeshes = {
			{ 
				indices = { 
					normal = { 
						count = 87048,
						offset = 958384,
					},
					position = { 
						count = 87048,
						offset = 784288,
					},
					tangent = { 
						count = 87048,
						offset = 1045432,
					},
					uv0 = { 
						count = 87048,
						offset = 871336,
					},
				},
			},
		},
		vertexAttr = { 
			normal = { 
				count = 261144,
				numComp = 3,
				offset = 174952,
			},
			position = { 
				count = 102120,
				numComp = 3,
				offset = 0,
			},
			tangent = { 
				count = 348192,
				numComp = 4,
				offset = 436096,
			},
			uv0 = { 
				count = 72832,
				numComp = 2,
				offset = 102120,
			},
		},
	}
end